<svg height="512pt" viewBox="0 -27 512.00032 512" width="512pt" xmlns="http://www.w3.org/2000/svg"><path d="m489.933594 20.347656c-.042969-.042968-.53125-.484375-.574219-.527344-15.644531-13.992187-37.40625-20.472656-61.472656-19.695312.34375.300781.714843.519531 1.042969.855469 6.902343 6.902343 8.492187 21.523437 0 28.089843-15.863282 12.265626-36.742188 11.992188-55.210938 5.511719-55.910156 51.398438-128.726562 65.203125-200.070312 86.375-7.496094 2.226563-15.023438 4.652344-22.539063 7.214844l-111.28125 82.402344c-14.089844 30.289062-13.789063 65.207031-6.363281 99.714843 4.324218 20.09375-19.617188 30.828126-31.941406 21.25 3.882812 24.648438 15.167968 46.375 33.582031 62.972657l20.316406 18.292969c20.746094 18.679687 45.992187 33.28125 74.261719 40.523437 102.214844 26.15625 184.582031-45.238281 201.394531-60.386719 1.859375-1.675781 3.671875-3.371094 5.535156-5.183594 2.601563-2.234374 5.25-4.546874 8.003907-7.015624 39.96875-35.871094 69.886718-87.410157 82.070312-141.398438 5.589844-24.707031 18.917969-49.507812 38.554688-71.71875l.703124-.796875c8.628907-9.746094 16.203126-19.210937 22.488282-28.097656 30.863281-43.648438 31.464844-91.214844 1.5-118.382813zm0 0" fill="#3d6f44"/><path d="m432.539062.203125c-.96875-.054687-1.957031-.070313-2.957031-.0625l.0625-.140625c-22.792969.398438-47.761719 7.453125-71.6875 21.171875-9.796875 5.621094-20.179687 12.359375-30.199219 19.542969-.414062.292968-.832031.585937-1.226562.882812-24.863281 17.957032-52.628906 30.132813-80.3125 35.210938-3.566406.652344-19.582031 4.304687-37 8.351562l-174.113281 128.902344c-4.167969 3.636719-7.875 7.722656-10.734375 12.410156-5.410156 9.351563-9.957032 18.671875-13.15625 27.828125-9.019532 23.722657-12.515625 46.84375-10.785156 68.101563.007812.070312.097656.140625.105468.203125 1.738282 20.253906 17.761719 37.441406 39.230469 43.65625 1.027344.300781 2.058594.582031 3.101563.867187 41.570312 11.261719 86.324218 7.667969 126.535156-7.082031 54.367187-19.953125 136.453125-61.789063 177.203125-141.070313 16.925781-32.917968 36.628906-64.675781 62.460937-92.511718 8.464844-9.117188 17.964844-18.609375 28.496094-28.097656 15.671875-14.117188 25.558594-33.371094 30.734375-53.871094 5.429687-21.515625-11.789063-42.960938-35.757813-44.292969zm0 0" fill="#f2ecbf"/><path d="m75.363281 118.945312c-51.796875 47.574219-54.347656 120.832032-5.695312 163.613282 24.332031 21.394531 86.042969.160156 137.847656-47.414063 51.804687-47.578125 74.070313-103.488281 49.738281-124.878906-48.652344-42.78125-130.085937-38.898437-181.890625 8.679687zm0 0" fill="#be7c6d"/><path d="m105.890625 176.523438c-4.871094 0-8.828125-3.945313-8.828125-8.828126 0-34.070312 27.722656-61.800781 61.800781-61.800781 4.871094 0 8.828125 3.949219 8.828125 8.828125 0 4.882813-3.957031 8.832032-8.828125 8.832032-24.339843 0-44.144531 19.800781-44.144531 44.140624 0 4.871094-3.945312 8.828126-8.828125 8.828126zm0 0" fill="#e2aca3"/></svg>