<?xml version="1.0" encoding="UTF-8" standalone="no"?>
<!-- Generator: Adobe Illustrator 19.0.0, SVG Export Plug-In . SVG Version: 6.00 Build 0)  -->

<svg
   xmlns:dc="http://purl.org/dc/elements/1.1/"
   xmlns:cc="http://creativecommons.org/ns#"
   xmlns:rdf="http://www.w3.org/1999/02/22-rdf-syntax-ns#"
   xmlns:svg="http://www.w3.org/2000/svg"
   xmlns="http://www.w3.org/2000/svg"
   xmlns:sodipodi="http://sodipodi.sourceforge.net/DTD/sodipodi-0.dtd"
   xmlns:inkscape="http://www.inkscape.org/namespaces/inkscape"
   version="1.1"
   id="Capa_1"
   x="0px"
   y="0px"
   viewBox="0 0 512 512"
   style="enable-background:new 0 0 512 512;"
   xml:space="preserve"
   sodipodi:docname="bbq.svg"
   inkscape:version="0.92.4 5da689c313, 2019-01-14"><metadata
   id="metadata67"><rdf:RDF><cc:Work
       rdf:about=""><dc:format>image/svg+xml</dc:format><dc:type
         rdf:resource="http://purl.org/dc/dcmitype/StillImage" /></cc:Work></rdf:RDF></metadata><defs
   id="defs65">
		</defs><sodipodi:namedview
   pagecolor="#ffffff"
   bordercolor="#666666"
   borderopacity="1"
   objecttolerance="10"
   gridtolerance="10"
   guidetolerance="10"
   inkscape:pageopacity="0"
   inkscape:pageshadow="2"
   inkscape:window-width="840"
   inkscape:window-height="965"
   id="namedview63"
   showgrid="false"
   inkscape:zoom="0.46093662"
   inkscape:cx="359.79995"
   inkscape:cy="290.00674"
   inkscape:window-x="840"
   inkscape:window-y="0"
   inkscape:window-maximized="0"
   inkscape:current-layer="g28" />
<g
   id="g30">
	<g
   id="g28">
		<g
   id="g90"><path
     d="m 503.388,156.691 c 0.005,-0.252 0.054,-0.495 0.054,-0.748 0,-55.2 -127.487,-84.984 -247.442,-84.984 -119.955,0 -247.441,29.783 -247.441,84.983 0,0.095 0.02,0.186 0.02,0.281 -0.09,47.528 17.439,93.403 49.201,128.761 8.169,8.873 17.189,16.924 26.931,24.036 l -41.76,80.047 c -3.12,6.016 -3.72,13.026 -1.668,19.485 2.052,6.459 6.589,11.837 12.609,14.948 3.624,1.895 7.652,2.885 11.742,2.883 9.546,0.011 18.304,-5.293 22.717,-13.758 l 41.158,-78.788 c 32.23,12.524 66.315,19.61 100.867,20.97 V 432.4 c 0,14.138 11.461,25.6 25.6,25.6 14.138,0 25.6,-11.461 25.6,-25.6 v -77.595 c 33.084,-1.358 65.751,-7.897 96.808,-19.38 1.299,-0.492 2.561,-1.13 3.854,-1.649 l 41.383,79.233 c 4.409,8.434 13.128,13.732 22.646,13.758 4.131,-0.039 8.194,-1.052 11.858,-2.958 12.442,-6.613 17.258,-21.998 10.808,-34.525 l -41.892,-80.162 c 48.23,-35.788 76.572,-92.374 76.347,-152.431 z M 256,88.025 c 135.7,0 230.283,35.757 230.371,67.872 -10e-4,0.155 -0.075,0.289 -0.067,0.445 l 0.009,0.274 c -1.307,31.95 -95.497,67.243 -230.314,67.243 -135.763,0 -230.375,-35.792 -230.375,-67.917 0,-32.125 94.614,-67.917 230.376,-67.917 z M 73.217,404.734 c -2.146,4.144 -7.235,5.779 -11.392,3.658 -2.041,-1.021 -3.583,-2.824 -4.276,-4.999 -0.693,-2.175 -0.477,-4.537 0.597,-6.551 l 40.842,-78.284 c 4.81,2.919 9.791,5.667 14.943,8.244 z m 191.292,27.667 c 0,4.713 -3.82,8.533 -8.533,8.533 -4.713,0 -8.533,-3.82 -8.533,-8.533 V 321.467 c 0,-4.713 3.82,-8.533 8.533,-8.533 4.713,0 8.533,3.82 8.533,8.533 z m 189.295,-35.225 c 2.188,4.127 0.631,9.247 -3.483,11.458 -1.995,1.141 -4.374,1.404 -6.571,0.729 -2.197,-0.676 -4.016,-2.231 -5.025,-4.296 l -40.891,-78.289 c 4.229,-2.108 8.448,-4.253 12.541,-6.636 0.338,-0.199 0.661,-0.422 0.967,-0.667 0.482,-0.285 0.922,-0.59 1.398,-0.877 z m -52.041,-91.867 c -0.317,0.189 -0.622,0.398 -0.912,0.625 -9.154,5.272 -18.713,9.805 -28.587,13.558 -29.102,10.74 -59.696,16.89 -90.688,18.229 v -16.254 c 0,-14.138 -11.462,-25.6 -25.6,-25.6 -14.138,0 -25.6,11.461 -25.6,25.6 v 16.108 C 159.752,333.44 105.883,312.077 70.534,273.642 49.704,250.551 35.505,222.258 29.44,191.757 c 40.973,32.142 135.897,49.168 226.56,49.168 90.657,0 185.574,-17.023 226.552,-49.161 -9.321,47.718 -38.764,89.098 -80.789,113.545 z"
     id="path2"
     inkscape:connector-curvature="0" /><path
     d="m 66.013,176.152 c 2.958,0.786 6.111,-0.073 8.262,-2.251 l 42.667,-42.667 c 1.601,-1.6 2.5,-3.77 2.5,-6.033 0,-2.263 -0.899,-4.433 -2.5,-6.033 -1.6,-1.601 -3.77,-2.5 -6.033,-2.5 -2.263,0 -4.434,0.899 -6.033,2.5 l -42.667,42.667 c -2.178,2.151 -3.037,5.304 -2.251,8.262 0.786,2.958 3.096,5.268 6.055,6.055 z"
     id="path4"
     inkscape:connector-curvature="0" /><path
     d="m 94.091,187.163 c 0.786,2.958 3.097,5.269 6.055,6.055 2.958,0.786 6.111,-0.073 8.262,-2.251 L 176.675,122.7 c 1.601,-1.6 2.5,-3.77 2.5,-6.033 0,-2.263 -0.899,-4.433 -2.5,-6.033 -1.6,-1.601 -3.77,-2.5 -6.033,-2.5 -2.263,0 -4.433,0.899 -6.033,2.5 l -68.267,68.267 c -2.178,2.151 -3.037,5.304 -2.251,8.262 z"
     id="path6"
     inkscape:connector-curvature="0" /><path
     d="m 136.757,195.696 c 0.786,2.958 3.097,5.269 6.055,6.055 2.958,0.786 6.111,-0.073 8.262,-2.251 l 85.333,-85.333 c 1.601,-1.6 2.5,-3.77 2.5,-6.033 0,-2.263 -0.899,-4.433 -2.5,-6.033 -1.6,-1.601 -3.77,-2.5 -6.033,-2.5 -2.263,0 -4.433,0.899 -6.033,2.5 l -85.333,85.333 c -2.178,2.151 -3.037,5.304 -2.251,8.262 z"
     id="path8"
     inkscape:connector-curvature="0" /><path
     d="m 179.424,204.23 c 0.786,2.958 3.097,5.269 6.055,6.055 2.958,0.786 6.111,-0.073 8.262,-2.251 l 93.867,-93.867 c 1.601,-1.6 2.5,-3.77 2.5,-6.033 0,-2.263 -0.899,-4.433 -2.5,-6.033 -1.6,-1.601 -3.77,-2.5 -6.033,-2.5 -2.263,0 -4.433,0.899 -6.033,2.5 l -93.867,93.867 c -2.178,2.15 -3.037,5.303 -2.251,8.262 z"
     id="path10"
     inkscape:connector-curvature="0" /><path
     d="m 230.624,204.23 c 0.786,2.958 3.097,5.269 6.055,6.055 2.958,0.786 6.111,-0.073 8.262,-2.251 l 85.333,-85.333 c 1.601,-1.6 2.5,-3.77 2.5,-6.033 0,-2.263 -0.899,-4.433 -2.5,-6.033 -1.6,-1.601 -3.77,-2.5 -6.033,-2.5 -2.263,0 -4.433,0.899 -6.033,2.5 l -85.333,85.333 c -2.178,2.15 -3.037,5.303 -2.251,8.262 z"
     id="path12"
     inkscape:connector-curvature="0" /><path
     d="m 281.824,204.23 c 0.786,2.958 3.097,5.269 6.055,6.055 2.958,0.786 6.111,-0.073 8.262,-2.251 l 76.8,-76.8 c 1.601,-1.6 2.5,-3.77 2.5,-6.033 0,-2.263 -0.899,-4.433 -2.5,-6.033 -1.6,-1.601 -3.77,-2.5 -6.033,-2.5 -2.263,0 -4.434,0.899 -6.033,2.5 l -76.8,76.8 c -2.178,2.15 -3.037,5.303 -2.251,8.262 z"
     id="path14"
     inkscape:connector-curvature="0" /><path
     d="m 341.557,195.696 c 0.786,2.958 3.097,5.269 6.055,6.055 2.958,0.786 6.111,-0.073 8.262,-2.251 l 68.267,-68.267 c 1.601,-1.6 2.5,-3.77 2.5,-6.033 0,-2.263 -0.899,-4.433 -2.5,-6.033 -1.6,-1.601 -3.77,-2.5 -6.033,-2.5 -2.263,0 -4.433,0.899 -6.033,2.5 l -68.267,68.267 c -2.178,2.151 -3.037,5.304 -2.251,8.262 z"
     id="path16"
     inkscape:connector-curvature="0" /><path
     d="m 401.272,187.172 c 0.785,2.965 3.1,5.28 6.065,6.065 2.965,0.785 6.122,-0.082 8.271,-2.27 l 34.133,-34.133 c 2.188,-2.149 3.055,-5.307 2.27,-8.271 -0.785,-2.965 -3.1,-5.28 -6.065,-6.065 -2.965,-0.785 -6.122,0.082 -8.271,2.27 l -34.133,34.133 c -2.188,2.149 -3.054,5.306 -2.27,8.271 z"
     id="path18"
     inkscape:connector-curvature="0" /></g>
	</g>
</g>
</svg>