<?xml version="1.0" encoding="UTF-8" standalone="no"?>
<!-- Generator: Adobe Illustrator 18.0.0, SVG Export Plug-In . SVG Version: 6.00 Build 0)  -->

<svg
   xmlns:dc="http://purl.org/dc/elements/1.1/"
   xmlns:cc="http://creativecommons.org/ns#"
   xmlns:rdf="http://www.w3.org/1999/02/22-rdf-syntax-ns#"
   xmlns:svg="http://www.w3.org/2000/svg"
   xmlns="http://www.w3.org/2000/svg"
   xmlns:sodipodi="http://sodipodi.sourceforge.net/DTD/sodipodi-0.dtd"
   xmlns:inkscape="http://www.inkscape.org/namespaces/inkscape"
   version="1.1"
   id="Capa_1"
   x="0px"
   y="0px"
   viewBox="0 0 60 60"
   style="enable-background:new 0 0 60 60;"
   xml:space="preserve"
   inkscape:version="0.91 r13725"
   sodipodi:docname="egg.svg"><metadata
     id="metadata55"><rdf:RDF><cc:Work
         rdf:about=""><dc:format>image/svg+xml</dc:format><dc:type
           rdf:resource="http://purl.org/dc/dcmitype/StillImage" /><dc:title></dc:title></cc:Work></rdf:RDF></metadata><defs
     id="defs53" /><sodipodi:namedview
     pagecolor="#ffffff"
     bordercolor="#666666"
     borderopacity="1"
     objecttolerance="10"
     gridtolerance="10"
     guidetolerance="10"
     inkscape:pageopacity="0"
     inkscape:pageshadow="2"
     inkscape:window-width="838"
     inkscape:window-height="978"
     id="namedview51"
     showgrid="false"
     inkscape:zoom="7.8666667"
     inkscape:cx="35.23599"
     inkscape:cy="30.378756"
     inkscape:window-x="833"
     inkscape:window-y="39"
     inkscape:window-maximized="0"
     inkscape:current-layer="Capa_1" /><g
     id="g3"><path
       d="M58.109,31.175C59.347,29.401,60,27.351,60,25.247c0-4.622-3.157-8.908-8.043-10.918c-1.803-0.742-3.192-2.176-3.716-3.835   c-1.334-4.23-4.368-6.635-9.276-7.353c-4.083-0.597-7.917,0.725-10.005,3.451c-0.825,1.078-2.712,1.511-4.579,1.055   c-1.478-0.36-3.016-0.551-4.572-0.564c-0.056,0-0.11-0.001-0.166-0.001c-6.904,0-12.605,3.692-13.588,8.822   c-0.342,1.784-0.132,3.566,0.626,5.297c0.896,2.051,0.082,4.262-2.181,5.914C1.599,29.234,0,32.039,0,35.013   c0,3.946,5.721,6.755,10.52,8.416c2.957,1.022,4.901,2.995,5.333,5.395l0.025,0.139C16.797,53.686,21.767,57,27.812,57   c0.203,0,0.407-0.004,0.613-0.012c4.588-0.168,8.983-2.109,11.76-5.192c0.855-0.949,2.233-1.478,3.438-1.302   c2.088,0.298,4.216,0.139,6.33-0.481c4.896-1.433,8.63-5.349,9.294-9.745c0.34-2.252-0.087-4.458-1.235-6.379   C57.501,33.033,57.538,31.993,58.109,31.175z M57.269,39.969c-0.549,3.642-3.715,6.906-7.878,8.124   c-1.835,0.538-3.683,0.681-5.482,0.421h-0.001c-1.858-0.267-3.904,0.497-5.208,1.944c-2.421,2.688-6.289,4.383-10.348,4.532   c-5.297,0.207-9.749-2.5-10.527-6.504c-0.566-3.149-2.99-5.682-6.65-6.948C5.43,39.551,2,37.111,2,35.013   c0-2.318,1.307-4.55,3.68-6.282c3.028-2.212,4.113-5.404,2.833-8.331c-0.593-1.353-0.759-2.738-0.493-4.118   c0.801-4.188,5.676-7.199,11.62-7.199c0.051,0,0.101,0.001,0.151,0.001c1.402,0.013,2.787,0.184,4.116,0.508   c2.656,0.648,5.326-0.068,6.641-1.781c1.646-2.15,4.756-3.178,8.128-2.689c4.13,0.604,6.563,2.503,7.657,5.976   c0.7,2.219,2.519,4.118,4.863,5.083c4.133,1.7,6.804,5.26,6.804,9.068c0,1.693-0.529,3.347-1.531,4.783   c-1.027,1.474-1.094,3.345-0.174,4.884C57.202,36.432,57.539,38.18,57.269,39.969z"
       id="path5" /><path
       d="M37.5,17C30.056,17,24,23.055,24,30.5S30.056,44,37.5,44S51,37.944,51,30.5S44.944,17,37.5,17z M37.5,42   C31.159,42,26,36.841,26,30.5S31.159,19,37.5,19S49,24.159,49,30.5S43.841,42,37.5,42z"
       id="path7" /></g><g
     id="g21" /><g
     id="g23" /><g
     id="g25" /><g
     id="g27" /><g
     id="g29" /><g
     id="g31" /><g
     id="g33" /><g
     id="g35" /><g
     id="g37" /><g
     id="g39" /><g
     id="g41" /><g
     id="g43" /><g
     id="g45" /><g
     id="g47" /><g
     id="g49" /></svg>