<?xml version="1.0" encoding="utf-8"?>
<!-- Generator: Adobe Illustrator 16.0.0, SVG Export Plug-In . SVG Version: 6.00 Build 0)  -->
<!DOCTYPE svg PUBLIC "-//W3C//DTD SVG 1.1//EN" "http://www.w3.org/Graphics/SVG/1.1/DTD/svg11.dtd">
<svg xmlns="http://www.w3.org/2000/svg" xmlns:xlink="http://www.w3.org/1999/xlink" version="1.1" id="Frying_x5F_Pan" x="0px" y="0px" width="512" height="512" viewBox="0 0 144.083 144" enable-background="new 0 0 144.083 144" xml:space="preserve">
<path d="M59.762,78.503L49.271,74.01c0-0.96-0.179-1.92-0.546-2.837c-0.749-1.871-2.173-3.342-4.015-4.15L24.566,57.4l-0.111-0.05  c-0.957-0.41-1.966-0.618-3.002-0.618c-3.057,0-5.81,1.816-7.012,4.625c-0.802,1.872-0.827,3.945-0.07,5.836  c0.749,1.871,2.173,3.342,4.015,4.15l20.144,9.623l0.112,0.051c0.956,0.409,1.965,0.617,3,0.617c2.001,0,3.863-0.789,5.254-2.115  l10.9,4.669c1.321,9.927,9.822,17.618,20.105,17.618h32.055c11.195,0,20.303-9.108,20.303-20.304v-3H59.762z M43.139,74.647  c-0.337,0.786-1.284,1.191-2.093,0.872l-20.124-9.613l-0.112-0.051c-0.399-0.171-0.708-0.487-0.87-0.891  c-0.161-0.403-0.156-0.845,0.015-1.245c0.336-0.787,1.284-1.194,2.092-0.873l20.124,9.613l0.112,0.051  c0.399,0.171,0.708,0.487,0.87,0.891C43.315,73.805,43.31,74.247,43.139,74.647z M109.956,95.807H77.901  c-6.858,0-12.605-4.853-13.987-11.304h60.028C122.559,90.954,116.813,95.807,109.956,95.807z"/>
<path d="M78.344,69.484c1.852,0,3.701,0,5.551,0c6.664-8.097-6.662-16.194,0-24.291c-1.85,0-3.699,0-5.551,0  C71.681,53.29,85.008,61.388,78.344,69.484z"/>
<path d="M91.77,69.484c1.852,0,3.703,0,5.553,0c6.664-8.097-6.664-16.194,0-24.291c-1.85,0-3.701,0-5.553,0  C85.106,53.29,98.434,61.388,91.77,69.484z"/>
<path d="M105.198,69.484c1.852,0,3.701,0,5.553,0c6.664-8.097-6.664-16.194,0-24.291c-1.852,0-3.701,0-5.553,0  C98.534,53.29,111.862,61.388,105.198,69.484z"/>
</svg>
