<svg height="300px" width="300px" fill="#000000" xmlns="http://www.w3.org/2000/svg" xmlns:xlink="http://www.w3.org/1999/xlink" version="1.1" x="0px" y="0px" viewBox="0 0 100 100" enable-background="new 0 0 100 100" xml:space="preserve"><g><path fill="#000000" d="M65.887,9.539C65.715,9.208,65.373,9,65,9H35c-0.33,0-0.627,0.168-0.813,0.435   C34.163,9.47,34.133,9.5,34.113,9.539l0,0c0,0.001,0,0.001,0,0.001c-0.128,0.246-0.145,0.53-0.057,0.785   c0.001,0.002,0.001,0.005,0.001,0.007c0.007,0.021,0.022,0.039,0.031,0.061c0.027,0.062,0.054,0.126,0.094,0.184   C34.23,10.645,39,17.529,39,26.088c0,3.884-0.761,6.988-1.643,10.583C36.252,41.177,35,46.285,35,54.176   c0,9.116,3.533,18.301,11.316,20.495c-0.81,0.8-1.316,1.853-1.316,3.017c0,1.477,0.805,2.778,2.029,3.6   c-0.505,0.521-0.835,1.216-0.965,2.061c-4.394,0.861-10.91,2.598-10.91,5.315c0,0.759,0,2.337,14.846,2.337   s14.846-1.578,14.846-2.337c0-2.718-6.517-4.454-10.91-5.315c-0.13-0.845-0.46-1.539-0.965-2.061   c1.225-0.821,2.029-2.123,2.029-3.6c0-1.165-0.507-2.218-1.316-3.018C61.467,72.473,65,63.271,65,54.141   c0-7.892-1.252-12.986-2.357-17.481C61.762,33.074,61,29.978,61,26.094c0-8.559,4.77-15.45,4.818-15.519   C66.032,10.271,66.059,9.87,65.887,9.539z M50,89c-6.213,0-10.697-0.394-12.441-0.763c1.24-0.909,5.042-2.168,9.071-2.96   c0.886,0.662,2.493,0.91,3.37,0.91s2.484-0.248,3.37-0.91c4.052,0.796,7.872,2.062,9.089,2.956C60.728,88.604,56.234,89,50,89z    M51.982,83.783c-0.376,0.171-1.136,0.404-1.982,0.404s-1.606-0.233-1.982-0.404c0.107-1.127,0.705-1.596,1.982-1.596   S51.875,82.656,51.982,83.783z M50,80.188c-1.654,0-3-1.121-3-2.5s1.346-2.5,3-2.5s3,1.121,3,2.5S51.654,80.188,50,80.188z    M50,73.164c-4.109,0-8.689-2.338-11.166-8.316c2.93,3.405,7.136,5.316,11.166,5.316c4.028,0,8.232-1.914,11.162-5.324   C58.685,70.823,54.107,73.164,50,73.164z M59,26.094c0,4.126,0.826,7.485,1.7,11.042c1.078,4.386,2.3,9.355,2.3,17.005   c0,8.662-6.748,14.023-13,14.023s-13-5.348-13-13.988c0-7.649,1.222-12.633,2.3-17.029c0.875-3.565,1.7-6.933,1.7-11.059   c0-6.785-2.697-12.452-4.203-15.088h26.406C61.697,13.637,59,19.308,59,26.094z"/></g></svg>