<?xml version="1.0" encoding="UTF-8" standalone="no"?>
<!-- Generator: Adobe Illustrator 18.0.0, SVG Export Plug-In . SVG Version: 6.00 Build 0)  -->

<svg
   xmlns:dc="http://purl.org/dc/elements/1.1/"
   xmlns:cc="http://creativecommons.org/ns#"
   xmlns:rdf="http://www.w3.org/1999/02/22-rdf-syntax-ns#"
   xmlns:svg="http://www.w3.org/2000/svg"
   xmlns="http://www.w3.org/2000/svg"
   xmlns:sodipodi="http://sodipodi.sourceforge.net/DTD/sodipodi-0.dtd"
   xmlns:inkscape="http://www.inkscape.org/namespaces/inkscape"
   version="1.1"
   id="Capa_1"
   x="0px"
   y="0px"
   viewBox="0 0 55 55"
   style="enable-background:new 0 0 55 55;"
   xml:space="preserve"
   inkscape:version="0.91 r13725"
   sodipodi:docname="leberkas.svg"><metadata
     id="metadata59"><rdf:RDF><cc:Work
         rdf:about=""><dc:format>image/svg+xml</dc:format><dc:type
           rdf:resource="http://purl.org/dc/dcmitype/StillImage" /><dc:title></dc:title></cc:Work></rdf:RDF></metadata><defs
     id="defs57" /><sodipodi:namedview
     pagecolor="#ffffff"
     bordercolor="#666666"
     borderopacity="1"
     objecttolerance="10"
     gridtolerance="10"
     guidetolerance="10"
     inkscape:pageopacity="0"
     inkscape:pageshadow="2"
     inkscape:window-width="838"
     inkscape:window-height="978"
     id="namedview55"
     showgrid="false"
     inkscape:zoom="8.5818182"
     inkscape:cx="32.706172"
     inkscape:cy="37.727197"
     inkscape:window-x="833"
     inkscape:window-y="39"
     inkscape:window-maximized="0"
     inkscape:current-layer="Capa_1" /><g
     id="g3"><path
       style="fill:#ffaaaa"
       d="M50.681,14.671C49.622,8.1,44.524,3.117,37.935,2.17c-2.081-0.299-4.091-0.172-5.962,0.304   c-4.289,1.092-8.774,1.091-13.063,0c-1.87-0.476-3.88-0.603-5.96-0.304C6.421,3.108,1.342,8.011,0.23,14.512   c-0.878,5.132,0.824,9.892,4.019,13.206c2.207,2.289,3.528,5.285,3.528,8.465l0,11.392c0,2.991,2.424,5.415,5.415,5.415h24.051   c2.991,0,5.415-2.424,5.415-5.415v-10.95c0-3.295,1.432-6.371,3.765-8.698C49.721,24.642,51.515,19.854,50.681,14.671z"
       id="path5" /><g
       id="g21"><path
         style="fill:#552200"
         d="M54.797,14.671C53.738,8.1,48.64,3.117,42.051,2.17c-1.466-0.211-2.894-0.199-4.266-0.014    c0.05,0.007,0.099,0.007,0.15,0.014C44.524,3.117,49.622,8.1,50.681,14.671c0.835,5.183-0.96,9.971-4.256,13.257    c-2.333,2.326-3.765,5.403-3.765,8.698l0,10.95c0,2.991-2.424,5.415-5.415,5.415h4.116c2.991,0,5.415-2.424,5.415-5.415v-10.95    c0-3.295,1.432-6.371,3.765-8.698C53.837,24.642,55.631,19.854,54.797,14.671z"
         id="path23" /></g></g><g
     id="g25" /><g
     id="g27" /><g
     id="g29" /><g
     id="g31" /><g
     id="g33" /><g
     id="g35" /><g
     id="g37" /><g
     id="g39" /><g
     id="g41" /><g
     id="g43" /><g
     id="g45" /><g
     id="g47" /><g
     id="g49" /><g
     id="g51" /><g
     id="g53" /></svg>