<svg height="300px" width="300px" fill="#000000" xmlns="http://www.w3.org/2000/svg" data-name="Layer 1" viewBox="0 0 100 100" x="0px" y="0px"><title>Noun_Project_100Icon_10px_alcohol</title><path d="M50,16.15A121.51,121.51,0,0,0,34.35,17c-5,.68-8.1,1.61-8.1,4.09q0,.06,0,.12l4.11,70.5c.07,2.64,3.66,3.66,6.79,4.25A72.6,72.6,0,0,0,50,97a72.6,72.6,0,0,0,12.85-1c3.13-.59,6.73-1.61,6.79-4.25l4.11-70.5s0-.08,0-.12c0-2.48-3.1-3.4-8.1-4.09A121.51,121.51,0,0,0,50,16.15ZM50,95c-9.74,0-17.64-1.49-17.64-3.34L31.85,83c2.77,3.46,9.75,5.87,18.15,5.87S65.38,86.42,68.15,83l-.51,8.71C67.64,93.51,59.74,95,50,95ZM68.29,80.6c-1.13,4-9,7.22-18.29,7.22S32.84,84.61,31.71,80.6L28.25,21.13c0-1.65,9.74-3,21.75-3s21.75,1.33,21.75,3Z"/><path d="M70,21.38a.5.5,0,0,0-.5.5c-.24.89-7,2.49-19.47,2.49s-19.23-1.59-19.47-2.48a.5.5,0,0,0-1,0c0,.71.65,1.76,6.28,2.6A101.4,101.4,0,0,0,50,25.36a101.4,101.4,0,0,0,14.19-.88c5.63-.84,6.28-1.89,6.28-2.6A.5.5,0,0,0,70,21.38Z"/></svg>