<svg height="300px" width="300px" fill="#000000" xmlns="http://www.w3.org/2000/svg" xmlns:xlink="http://www.w3.org/1999/xlink" version="1.1" x="0px" y="0px" viewBox="0 0 100 100" enable-background="new 0 0 100 100" xml:space="preserve"><g><path fill="#000000" d="M80.717,10.302C80.527,10.109,80.302,10,80.032,10h-60c-0.27,0-0.528,0.109-0.716,0.302   c-0.188,0.193-0.291,0.213-0.283,0.483l1.823,73.696c0.112,4.327,2.637,5.252,4.108,5.419c5.573,0.629,17.83,1.1,25.048,1.1   c7.218,0,19.466-0.471,25.038-1.1c1.472-0.167,3.897-1.092,4.01-5.419l1.906-73.455C80.975,10.756,80.904,10.495,80.717,10.302z    M77.131,84.431c-0.084,3.231-1.748,3.42-2.295,3.481C69.327,88.535,57.197,89,50.032,89s-19.295-0.465-24.804-1.088   c-0.547-0.062-2.211-0.25-2.294-3.481l-0.27-10.421c0.719,0.516,1.542,0.8,2.34,0.891c5.573,0.629,17.81,1.1,25.028,1.1   c7.218,0,19.456-0.471,25.028-1.1c0.799-0.091,1.621-0.375,2.34-0.89L77.131,84.431z M77.519,69.436   c-0.054,2.053-1.007,3.287-2.683,3.477C69.327,73.535,57.197,74,50.032,74s-19.295-0.465-24.804-1.088   c-1.675-0.189-2.627-1.424-2.683-3.479L21.059,12h57.947L77.519,69.436z"/></g></svg>