<svg viewBox="0 0 484 484" xmlns="http://www.w3.org/2000/svg"><path d="m386 8c0-4.417969-3.582031-8-8-8h-370c-4.417969 0-8 3.582031-8 8v468c0 4.417969 3.582031 8 8 8h370c4.417969 0 8-3.582031 8-8zm-16 8v71h-354v-71zm-354 452v-365h354v365zm0 0"/><path d="m331 194c0-4.417969-3.582031-8-8-8h-259c-4.417969 0-8 3.582031-8 8v234c0 4.417969 3.582031 8 8 8h259c4.417969 0 8-3.582031 8-8zm-17 226h-242v-218h242zm0 0"/><path d="m106.980469 289.199219c3.121093 3.125 8.1875 3.125 11.3125 0l45.007812-45.007813c3.125-3.125 3.121094-8.1875 0-11.3125-3.125-3.125-8.191406-3.125-11.316406 0l-45 45.007813c-3.125 3.121093-3.128906 8.1875-.003906 11.3125zm0 0"/><path d="m105.816406 257.445312c2.121094.003907 4.160156-.839843 5.65625-2.34375l17.730469-17.730468c3.089844-3.128906 3.074219-8.167969-.035156-11.277344s-8.148438-3.125-11.277344-.035156l-17.730469 17.730468c-2.289062 2.289063-2.972656 5.730469-1.734375 8.71875 1.238281 2.988282 4.15625 4.9375 7.390625 4.9375zm0 0"/><path d="m322.269531 138h-258.539062c-4.417969 0-8 3.582031-8 8s3.582031 8 8 8h258.539062c4.417969 0 8-3.582031 8-8s-3.582031-8-8-8zm0 0"/><path d="m218 37c0-4.417969-3.582031-8-8-8h-33c-4.417969 0-8 3.582031-8 8v29c0 4.417969 3.582031 8 8 8h33c4.417969 0 8-3.582031 8-8zm-33 8h16v13h-16zm0 0"/><path d="m285 37c0-4.417969-3.582031-8-8-8h-33c-4.417969 0-8 3.582031-8 8v29c0 4.417969 3.582031 8 8 8h33c4.417969 0 8-3.582031 8-8zm-33 8h17v13h-17zm0 0"/><path d="m353 37c0-4.417969-3.582031-8-8-8h-33c-4.417969 0-8 3.582031-8 8v29c0 4.417969 3.582031 8 8 8h33c4.417969 0 8-3.582031 8-8zm-33 8h16v13h-16zm0 0"/><path d="m150 37c0-4.417969-3.582031-8-8-8h-33c-4.417969 0-8 3.582031-8 8v29c0 4.417969 3.582031 8 8 8h33c4.417969 0 8-3.582031 8-8zm-33 8h17v13h-17zm0 0"/><path d="m83 37c0-4.417969-3.582031-8-8-8h-33c-4.417969 0-8 3.582031-8 8v29c0 4.417969 3.582031 8 8 8h33c4.417969 0 8-3.582031 8-8zm-33 8h16v13h-16zm0 0"/></svg>