<?xml version="1.0" encoding="UTF-8" standalone="no"?>
<svg
   xmlns:dc="http://purl.org/dc/elements/1.1/"
   xmlns:cc="http://creativecommons.org/ns#"
   xmlns:rdf="http://www.w3.org/1999/02/22-rdf-syntax-ns#"
   xmlns:svg="http://www.w3.org/2000/svg"
   xmlns="http://www.w3.org/2000/svg"
   xmlns:sodipodi="http://sodipodi.sourceforge.net/DTD/sodipodi-0.dtd"
   xmlns:inkscape="http://www.inkscape.org/namespaces/inkscape"
   viewBox="0 0 484 484"
   version="1.1"
   id="svg22"
   sodipodi:docname="oven.svg"
   inkscape:version="0.92.4 5da689c313, 2019-01-14">
  <path id="path2"
     d="m 436,8 c 0,-4.417969 -3.58203,-8 -8,-8 H 58 c -4.417969,0 -8,3.582031 -8,8 v 468 c 0,4.41797 3.582031,8 8,8 h 370 c 4.41797,0 8,-3.58203 8,-8 z m -16,8 V 87 H 66 V 16 Z M 66,468 V 103 h 354 v 365 z m 0,0"
     inkscape:connector-curvature="0" />
  <path id="path4"
     d="m 381,194 c 0,-4.41797 -3.58203,-8 -8,-8 H 114 c -4.41797,0 -8,3.58203 -8,8 v 234 c 0,4.41797 3.58203,8 8,8 h 259 c 4.41797,0 8,-3.58203 8,-8 z M 364,420 H 122 V 202 h 242 z m 0,0"
     inkscape:connector-curvature="0" />
  <path id="path6"
     d="m 156.98047,289.19922 c 3.12109,3.125 8.1875,3.125 11.3125,0 l 45.00781,-45.00781 c 3.125,-3.125 3.12109,-8.1875 0,-11.3125 -3.125,-3.125 -8.19141,-3.125 -11.31641,0 l -44.99999,45.00781 c -3.125,3.12109 -3.12891,8.1875 -0.004,11.3125 z m 0,0"
     inkscape:connector-curvature="0" />
  <path id="path8"
     d="m 155.81641,257.44531 c 2.12109,0.004 4.16015,-0.83984 5.65625,-2.34375 l 17.73046,-17.73047 c 3.08985,-3.1289 3.07422,-8.16797 -0.0352,-11.27734 -3.10938,-3.10938 -8.14844,-3.125 -11.27734,-0.0352 l -17.73047,17.73047 c -2.28907,2.28906 -2.97266,5.73047 -1.73438,8.71875 1.23828,2.98828 4.15625,4.9375 7.39063,4.9375 z m 0,0"
     inkscape:connector-curvature="0" />
  <path id="path10"
     d="M 372.26953,138 H 113.73047 c -4.41797,0 -8,3.58203 -8,8 0,4.41797 3.58203,8 8,8 h 258.53906 c 4.41797,0 8,-3.58203 8,-8 0,-4.41797 -3.58203,-8 -8,-8 z m 0,0"
     inkscape:connector-curvature="0" />
  <path id="path12"
     d="m 268,37 c 0,-4.417969 -3.58203,-8 -8,-8 h -33 c -4.41797,0 -8,3.582031 -8,8 v 29 c 0,4.417969 3.58203,8 8,8 h 33 c 4.41797,0 8,-3.582031 8,-8 z m -33,8 h 16 v 13 h -16 z m 0,0"
     inkscape:connector-curvature="0" />
  <path id="path14"
     d="m 335,37 c 0,-4.417969 -3.58203,-8 -8,-8 h -33 c -4.41797,0 -8,3.582031 -8,8 v 29 c 0,4.417969 3.58203,8 8,8 h 33 c 4.41797,0 8,-3.582031 8,-8 z m -33,8 h 17 v 13 h -17 z m 0,0"
     inkscape:connector-curvature="0" />
  <path id="path16"
     d="m 403,37 c 0,-4.417969 -3.58203,-8 -8,-8 h -33 c -4.41797,0 -8,3.582031 -8,8 v 29 c 0,4.417969 3.58203,8 8,8 h 33 c 4.41797,0 8,-3.582031 8,-8 z m -33,8 h 16 v 13 h -16 z m 0,0"
     inkscape:connector-curvature="0" />
  <path id="path18"
     d="m 200,37 c 0,-4.417969 -3.58203,-8 -8,-8 h -33 c -4.41797,0 -8,3.582031 -8,8 v 29 c 0,4.417969 3.58203,8 8,8 h 33 c 4.41797,0 8,-3.582031 8,-8 z m -33,8 h 17 v 13 h -17 z m 0,0"
     inkscape:connector-curvature="0" />
  <path id="path20"
     d="m 133,37 c 0,-4.417969 -3.58203,-8 -8,-8 H 92 c -4.417969,0 -8,3.582031 -8,8 v 29 c 0,4.417969 3.582031,8 8,8 h 33 c 4.41797,0 8,-3.582031 8,-8 z m -33,8 h 16 v 13 h -16 z m 0,0"
     inkscape:connector-curvature="0" />
</svg>
