<?xml version="1.0" encoding="UTF-8" standalone="no"?>
<!-- Generator: Adobe Illustrator 16.0.0, SVG Export Plug-In . SVG Version: 6.00 Build 0)  -->

<svg
   xmlns:dc="http://purl.org/dc/elements/1.1/"
   xmlns:cc="http://creativecommons.org/ns#"
   xmlns:rdf="http://www.w3.org/1999/02/22-rdf-syntax-ns#"
   xmlns:svg="http://www.w3.org/2000/svg"
   xmlns="http://www.w3.org/2000/svg"
   xmlns:sodipodi="http://sodipodi.sourceforge.net/DTD/sodipodi-0.dtd"
   xmlns:inkscape="http://www.inkscape.org/namespaces/inkscape"
   version="1.1"
   id="Frying_x5F_Pan"
   viewBox="0 0 144 144"
   enable-background="new 0 0 144 144"
   xml:space="preserve"
   sodipodi:docname="pan-1.svg"
   inkscape:version="0.92.4 5da689c313, 2019-01-14"><metadata
   id="metadata3816"><rdf:RDF><cc:Work
       rdf:about=""><dc:format>image/svg+xml</dc:format><dc:type
         rdf:resource="http://purl.org/dc/dcmitype/StillImage" /><dc:title></dc:title></cc:Work></rdf:RDF></metadata><defs
   id="defs3814" /><sodipodi:namedview
   pagecolor="#ffffff"
   bordercolor="#666666"
   borderopacity="1"
   objecttolerance="10"
   gridtolerance="10"
   guidetolerance="10"
   inkscape:pageopacity="0"
   inkscape:pageshadow="2"
   inkscape:window-width="840"
   inkscape:window-height="965"
   id="namedview3812"
   showgrid="false"
   inkscape:zoom="0.921875"
   inkscape:cx="303.09776"
   inkscape:cy="221.24697"
   inkscape:window-x="840"
   inkscape:window-y="0"
   inkscape:current-layer="Frying_x5F_Pan" />
<path
   d="M 57.058171,74.394544 44.256853,68.9121 c 0,-1.17141 -0.218419,-2.34282 -0.666238,-3.461761 -0.913946,-2.283029 -2.651537,-4.077971 -4.899181,-5.063908 L 14.111345,48.644264 13.975901,48.583253 c -1.16775,-0.50029 -2.398952,-0.754095 -3.663098,-0.754095 -3.730209,0 -7.0894722,2.215916 -8.5561747,5.643512 -0.97861593,2.28425 -1.00912156,4.813764 -0.08542,7.121198 0.9139435,2.28303 2.6515356,4.077972 4.8991789,5.063909 l 24.5800898,11.742165 0.136665,0.06223 c 1.166529,0.499069 2.397729,0.752874 3.660657,0.752874 2.441658,0 4.713706,-0.962753 6.41103,-2.580762 l 13.300386,5.697201 c 1.61191,12.113115 11.984991,21.497855 24.532502,21.497855 h 39.114123 c 13.66034,0 24.77411,-11.11379 24.77411,-24.775363 V 74.393324 H 57.058171 Z m -20.2837,-4.705164 c -0.411214,0.959092 -1.566762,1.453281 -2.553918,1.06403 L 9.6648673,59.023446 9.5282023,58.961218 C 9.0413353,58.75256 8.6642877,58.36697 8.4666115,57.874002 8.2701561,57.382254 8.2762576,56.842916 8.4849173,56.35483 8.894911,55.394516 10.051679,54.897888 11.037615,55.289578 l 24.555686,11.729965 0.136666,0.06223 c 0.486866,0.208658 0.863914,0.594247 1.061589,1.087215 0.197677,0.492969 0.191575,1.032306 -0.01708,1.520393 z M 118.30584,95.509212 H 79.191721 c -8.36826,0 -15.380858,-5.921722 -17.067201,-13.793354 h 73.24731 c -1.68757,7.871632 -8.69895,13.793354 -17.06599,13.793354 z"
   id="path3803"
   inkscape:connector-curvature="0" />

</svg>