<?xml version="1.0" encoding="UTF-8" standalone="no"?>
<svg
   xmlns:dc="http://purl.org/dc/elements/1.1/"
   xmlns:cc="http://creativecommons.org/ns#"
   xmlns:rdf="http://www.w3.org/1999/02/22-rdf-syntax-ns#"
   xmlns:svg="http://www.w3.org/2000/svg"
   xmlns="http://www.w3.org/2000/svg"
   xmlns:sodipodi="http://sodipodi.sourceforge.net/DTD/sodipodi-0.dtd"
   xmlns:inkscape="http://www.inkscape.org/namespaces/inkscape"
   version="1.1"
   viewBox="0 0 448.726 448.726"
   enable-background="new 0 0 448.726 448.726"
   id="svg12"
   sodipodi:docname="pan.svg"
   inkscape:version="0.92.4 5da689c313, 2019-01-14"
>
  <g id="g10">
    <path id="path2"
       d="m 444.02378,175.43914 -9.32806,-22.55202 c -4.96846,-12.01786 -14.87064,-21.35644 -26.8822,-25.81174 V 96.226834 c 0,-13.924273 -10.07359,-33.727612 -58.06302,-48.998885 -33.72024,-10.729746 -78.35426,-16.639307 -125.67597,-16.639307 -47.32276,0 -91.95572,5.909561 -125.67702,16.640357 C 50.408086,62.500273 40.334492,82.303613 40.334492,96.226834 v 27.975776 h -16.25655 c -7.08201,0 -13.660341,3.51524 -17.5961931,9.40378 -3.9358521,5.88853 -4.6687638,13.31123 -1.9610911,19.85591 l 9.3322702,22.55203 c 5.017869,12.12511 14.703451,21.25864 26.483667,25.69608 v 144.19855 c 0,13.92427 10.073594,33.72761 58.063018,48.99783 33.721297,10.7308 78.354257,16.64036 125.677017,16.64036 47.32171,0 91.95573,-5.90956 125.67598,-16.64036 47.98942,-15.27022 58.06302,-35.07356 58.06302,-48.99783 V 204.69567 h 16.65192 c 7.08411,0 13.66349,-3.51418 17.59829,-9.40061 3.93375,-5.88748 4.66561,-13.31018 1.95794,-19.85592 z M 104.775,67.268932 c 31.71394,-10.09147 74.08193,-15.649822 119.29953,-15.649822 45.21761,0 87.58454,5.558352 119.29954,15.649822 32.04096,10.195571 43.40898,21.971581 43.40898,28.957902 0,3.795996 -3.36802,9.006296 -11.57306,14.608816 -33.16505,-16.608813 -90.11556,-26.792817 -151.13651,-26.792817 -61.0199,0 -117.96936,10.184004 -151.135454,26.792817 C 64.73299,105.23313 61.366012,100.02283 61.366012,96.226834 61.364987,89.240513 72.734031,77.465554 104.775,67.268932 Z m 245.24259,55.670798 c -2.11251,0.75499 -4.31755,1.50474 -6.64458,2.245 -31.71394,10.09252 -74.08192,15.64983 -119.29953,15.64983 -45.21761,0 -87.58454,-5.55835 -119.29953,-15.64983 -2.32703,-0.74026 -4.53207,-1.49001 -6.64563,-2.245 31.2029,-11.2145 76.92629,-17.86643 125.94305,-17.86643 49.01888,0 94.74331,6.65193 125.94622,17.86643 z m -316.733561,45.0336 -9.353301,-22.60565 c 0.0052,-0.0389 0.05573,-0.11356 0.147214,-0.13355 h 16.25655 v 32.40585 c -3.017872,-2.56151 -5.464767,-5.8349 -7.050463,-9.66665 z M 343.37301,374.86685 c -31.71394,10.09253 -74.08192,15.64983 -119.29953,15.64983 -45.21761,0 -87.58454,-5.55835 -119.29953,-15.64983 C 72.732979,364.67129 61.363909,352.89528 61.363909,345.90896 V 204.69567 h 30.844335 c 5.807563,0 10.515236,-4.70767 10.515236,-10.51523 0,-5.80756 -4.707673,-10.51523 -10.515236,-10.51523 H 61.36496 v -55.27543 c 8.656141,5.86435 20.625631,11.61513 37.03255,16.83594 33.7213,10.73079 78.35426,16.64035 125.67702,16.64035 47.32171,0 91.95573,-5.90956 125.67597,-16.64035 16.40693,-5.22081 28.37642,-10.97159 37.03255,-16.83594 v 217.51918 c 0,6.98632 -11.36906,18.76233 -43.41004,28.95789 z m 81.09243,-191.20164 h -16.65192 v -32.70133 c 3.22608,2.62671 5.82334,6.02733 7.44899,9.95898 l 9.3512,22.61196 c -0.006,0.0368 -0.0547,0.10936 -0.14827,0.13039 z"
       inkscape:connector-curvature="0" />
  </g>
</svg>
