<svg height="512pt" viewBox="-4 0 512 512" width="512pt" xmlns="http://www.w3.org/2000/svg"><path d="m380.9375 164.464844c-8.574219 0-16.863281 1.746094-24.835938 4.722656-12.28125-8.324219-25.707031-12.984375-39.808593-12.984375-11.445313 0-22.441407 3.125-32.75 8.722656-9.421875-5.519531-20.296875-8.722656-31.882813-8.722656-11.585937 0-22.457031 3.203125-31.890625 8.722656-10.308593-5.597656-21.296875-8.722656-32.742187-8.722656-14.09375 0-27.519532 4.660156-39.804688 12.984375-7.976562-2.96875-16.261718-4.722656-24.835937-4.722656-58.003907 0-105.03125 72.15625-105.03125 161.167968 0 89.007813 47.027343 161.15625 105.03125 161.15625 5.863281 0 11.574219-.917968 17.179687-2.339843 14.269532 11.972656 30.355469 18.871093 47.460938 18.871093 11.445312 0 22.441406-3.121093 32.75-8.71875 9.425781 5.519532 20.296875 8.71875 31.882812 8.71875 11.585938 0 22.460938-3.199218 31.890625-8.71875 10.3125 5.597657 21.296875 8.71875 32.742188 8.71875 17.097656 0 33.195312-6.898437 47.453125-18.871093 5.605468 1.414062 11.316406 2.339843 17.183594 2.339843 58.011718 0 105.035156-72.148437 105.035156-161.15625 0-89.011718-47.023438-161.167968-105.027344-161.167968zm0 0" fill="#dc691d"/><path d="m347.117188 104.136719c-23.921876 0-43.386719-19.464844-43.386719-43.390625 0-15.949219 8.355469-30.277344 22.238281-41.011719-7.019531-1.535156-14.507812-2.378906-22.238281-2.378906-28.707031 0-52.070313 23.351562-52.070313 52.066406 0 4.792969-3.886718 8.679687-8.675781 8.679687-4.792969 0-8.679687-3.886718-8.679687-8.679687 0-38.277344 31.144531-69.421875 69.425781-69.421875 15.90625 0 30.691406 2.855469 43.386719 7.886719 12.699218-5.03125 27.484374-7.886719 43.390624-7.886719 19.691407 0 37.65625 4.363281 52.070313 11.828125 14.414063-7.464844 32.375-11.828125 52.066406-11.828125 4.789063 0 8.675781 3.886719 8.675781 8.679688 0 4.789062-3.886718 8.675781-8.675781 8.675781-12.695312 0-24.722656 2.265625-35.09375 6.160156 11.167969 10.214844 17.738281 23.09375 17.738281 37.230469 0 19.144531-15.570312 34.710937-34.710937 34.710937-19.144531 0-34.714844-15.566406-34.714844-34.710937 0-14.136719 6.570313-27.015625 17.738281-37.230469-10.371093-3.894531-22.398437-6.160156-35.09375-6.160156-7.730468 0-15.21875.84375-22.242187 2.378906 13.886719 10.734375 22.242187 25.0625 22.242187 41.011719 0 23.925781-19.464843 43.390625-43.390624 43.390625zm0-76.976563c-15.765626 8.039063-26.03125 20.222656-26.03125 33.585938 0 14.351562 11.679687 26.035156 26.03125 26.035156 14.355468 0 26.035156-11.683594 26.035156-26.035156 0-13.363282-10.265625-25.546875-26.035156-33.585938zm95.460937 5.234375c-10.753906 7.671875-17.359375 17.632813-17.359375 28.351563 0 9.570312 7.785156 17.355468 17.359375 17.355468 9.570313 0 17.355469-7.785156 17.355469-17.355468 0-10.71875-6.605469-20.679688-17.355469-28.351563zm0 0" fill="#c6be91"/><path d="m220.289062 164.882812c9.441407-4.828124 20.089844-7.613281 31.371094-7.613281 8.246094 0 16.132813 1.539063 23.492188 4.203125 6.28125-56.6875-9.617188-84.074218-20.304688-103.6875-2.847656-5.214844-9.289062-7.203125-14.597656-4.539062l-17.226562 8.617187c-4.78125 2.386719-7.097657 7.871094-5.621094 13.011719 15.757812 55.164062 7.84375 68.824219 2.886718 90.007812zm0 0" fill="#23a24d"/><path d="m251.660156 512c-38.183594 0-69.421875-31.242188-69.421875-69.421875v-225.628906c0-38.183594 31.238281-69.421875 69.421875-69.421875s69.425782 31.238281 69.425782 69.421875v225.628906c0 38.179687-31.242188 69.421875-69.425782 69.421875zm0 0" fill="#ed8a19"/><path d="m321.085938 147.527344c-12.296876 0-24.101563 3.277344-35.183594 9.152344 20.960937 11.992187 35.183594 34.53125 35.183594 60.269531v225.628906c0 25.738281-14.222657 48.273437-35.183594 60.265625 11.082031 5.875 22.886718 9.15625 35.183594 9.15625 62.304687 0 112.8125-81.589844 112.8125-182.238281 0-100.644531-50.507813-182.234375-112.8125-182.234375zm0 0" fill="#dc691d"/><path d="m390.507812 156.203125c-9.207031 0-18.101562 1.839844-26.675781 4.957031 41.097657 27.222656 70.066407 92.410156 70.066407 168.601563 0 70.988281-25.175782 132.339843-61.839844 162.425781 6.015625 1.484375 12.148437 2.457031 18.449218 2.457031 62.308594 0 112.8125-75.757812 112.8125-169.222656 0-93.460937-50.503906-169.21875-112.8125-169.21875zm0 0" fill="#ed8a19"/><path d="m182.238281 147.527344c12.296875 0 24.097657 3.277344 35.179688 9.152344-20.957031 11.992187-35.179688 34.53125-35.179688 60.269531v225.628906c0 25.738281 14.222657 48.273437 35.179688 60.265625-11.082031 5.875-22.882813 9.15625-35.179688 9.15625-62.308593 0-112.816406-81.589844-112.816406-182.238281 0-100.644531 50.507813-182.234375 112.816406-182.234375zm0 0" fill="#dc691d"/><path d="m112.8125 156.203125c9.207031 0 18.101562 1.839844 26.675781 4.957031-41.097656 27.222656-70.066406 92.410156-70.066406 168.601563 0 70.988281 25.175781 132.339843 61.839844 162.425781-6.011719 1.484375-12.148438 2.457031-18.449219 2.457031-62.308594 0-112.8125-75.757812-112.8125-169.222656 0-93.460937 50.503906-169.21875 112.8125-169.21875zm0 0" fill="#ed8a19"/></svg>