<svg xmlns="http://www.w3.org/2000/svg" viewBox="0 0 18 18" shape-rendering="crispEdges"><g fill="#176d1c"><rect x="9" y="5" width="4" height="1"/><rect x="5" y="6" width="2" height="1"/><rect x="8" y="6" width="1" height="1"/><rect x="13" y="6" width="1" height="1"/><rect x="4" y="7" width="1" height="2"/><rect x="7" y="7" width="1" height="3"/><rect x="9" y="7" width="1" height="2"/><rect x="14" y="7" width="2" height="1"/><rect x="1" y="8" width="2" height="1"/><rect x="10" y="8" width="1" height="3"/><rect x="16" y="8" width="1" height="4"/><rect x="3" y="9" width="1" height="1"/><rect x="4" y="10" width="1" height="2"/><rect x="6" y="10" width="1" height="1"/><rect x="11" y="10" width="6" height="1"/><rect x="1" y="11" width="5" height="1"/><rect x="11" y="11" width="1" height="1"/><rect x="2" y="12" width="1" height="2"/><rect x="6" y="12" width="1" height="1"/><rect x="10" y="12" width="1" height="1"/><rect x="15" y="12" width="1" height="2"/><rect x="7" y="13" width="1" height="1"/><rect x="9" y="13" width="1" height="1"/><rect x="3" y="14" width="1" height="1"/><rect x="8" y="14" width="1" height="3"/><rect x="14" y="14" width="1" height="1"/><rect x="4" y="15" width="1" height="1"/><rect x="13" y="15" width="1" height="1"/><rect x="6" y="16" width="7" height="1"/></g><g fill="#3c9a41"><rect x="9" y="6" width="3" height="1"/><rect x="5" y="7" width="1" height="3"/><rect x="6" y="7" width="1" height="1"/><rect x="11" y="7" width="1" height="1"/><rect x="8" y="8" width="1" height="4"/><rect x="12" y="8" width="4" height="1"/><rect x="1" y="9" width="1" height="2"/><rect x="4" y="9" width="2" height="1"/><rect x="9" y="9" width="1" height="2"/><rect x="12" y="9" width="2" height="1"/><rect x="7" y="10" width="3" height="1"/><rect x="6" y="11" width="1" height="1"/><rect x="13" y="11" width="2" height="1"/><rect x="7" y="12" width="1" height="1"/><rect x="13" y="12" width="2" height="1"/><rect x="3" y="13" width="2" height="1"/><rect x="4" y="14" width="2" height="1"/><rect x="9" y="14" width="3" height="1"/></g><g fill="#76c16f"><rect x="12" y="6" width="1" height="2"/><rect x="8" y="7" width="1" height="1"/><rect x="13" y="7" width="1" height="1"/><rect x="6" y="8" width="1" height="1"/><rect x="2" y="10" width="1" height="1"/><rect x="7" y="11" width="1" height="1"/><rect x="8" y="12" width="1" height="2"/><rect x="12" y="12" width="1" height="2"/><rect x="11" y="13" width="2" height="1"/><rect x="5" y="15" width="2" height="1"/></g><g fill="#138808"><rect x="10" y="7" width="1" height="1"/><rect x="11" y="8" width="1" height="2"/><rect x="2" y="9" width="1" height="1"/><rect x="6" y="9" width="1" height="1"/><rect x="14" y="9" width="2" height="1"/><rect x="3" y="10" width="1" height="1"/><rect x="5" y="10" width="1" height="1"/><rect x="9" y="11" width="2" height="1"/><rect x="12" y="11" width="1" height="1"/><rect x="15" y="11" width="1" height="1"/><rect x="3" y="12" width="3" height="1"/><rect x="9" y="12" width="1" height="1"/><rect x="11" y="12" width="1" height="1"/><rect x="5" y="13" width="2" height="1"/><rect x="10" y="13" width="1" height="1"/><rect x="13" y="13" width="2" height="1"/><rect x="6" y="14" width="2" height="1"/><rect x="12" y="14" width="2" height="1"/><rect x="7" y="15" width="1" height="1"/><rect x="9" y="15" width="4" height="1"/></g></svg>