<?xml version="1.0" encoding="UTF-8" standalone="no"?>
<svg
   class="logo"
   width="350.63736mm"
   height="119.06645mm"
   viewBox="0 0 350.63735 119.06646"
   version="1.1"
   id="svg1846"
   inkscape:version="1.1.1 (3bf5ae0d25, 2021-09-20, custom)"
   sodipodi:docname="logo.svg"
   xmlns:inkscape="http://www.inkscape.org/namespaces/inkscape"
   xmlns:sodipodi="http://sodipodi.sourceforge.net/DTD/sodipodi-0.dtd"
   xmlns="http://www.w3.org/2000/svg"
   xmlns:svg="http://www.w3.org/2000/svg"
   xmlns:rdf="http://www.w3.org/1999/02/22-rdf-syntax-ns#"
   xmlns:cc="http://creativecommons.org/ns#"
   xmlns:dc="http://purl.org/dc/elements/1.1/">
  <defs
     id="defs1840" />
  <sodipodi:namedview
     id="base"
     pagecolor="#ffffff"
     bordercolor="#666666"
     borderopacity="1.0"
     inkscape:pageopacity="0.0"
     inkscape:pageshadow="2"
     inkscape:zoom="0.175"
     inkscape:cx="442.85714"
     inkscape:cy="505.71429"
     inkscape:document-units="mm"
     inkscape:current-layer="layer1"
     inkscape:document-rotation="0"
     showgrid="true"
     inkscape:window-width="1143"
     inkscape:window-height="1386"
     inkscape:window-x="0"
     inkscape:window-y="0"
     inkscape:window-maximized="1"
     inkscape:snap-grids="true"
     inkscape:pagecheckerboard="0">
    <inkscape:grid
       type="xygrid"
       id="grid1919"
       originx="-1.058341"
       originy="-5.0000005e-06" />
  </sodipodi:namedview>
  <metadata
     id="metadata1843">
    <rdf:RDF>
      <cc:Work
         rdf:about="">
        <dc:format>image/svg+xml</dc:format>
        <dc:type
           rdf:resource="http://purl.org/dc/dcmitype/StillImage" />
        <dc:title />
      </cc:Work>
    </rdf:RDF>
  </metadata>
  <g
     inkscape:label="Layer 1"
     inkscape:groupmode="layer"
     id="layer1"
     transform="translate(127.70111,-146.51412)">
    <path
       d="m -107.95907,235.82328 c -5.09219,0 -9.32263,-0.60735 -12.69131,-1.82153 -3.32951,-1.21428 -5.67974,-2.29144 -7.05073,-3.23157 l 0.23432,-10.22346 c 1.25345,1.09702 4.52492,2.35017 7.69775,3.76032 3.17283,1.41015 6.9528,2.11522 11.33991,2.11522 3.72122,0 6.56109,-0.62625 8.519627,-1.88017 1.997705,-1.25347 2.996555,-3.01616 2.996555,-5.28805 0,-1.99764 -0.64634,-3.60366 -1.938961,-4.81794 -1.253441,-1.25347 -2.781101,-2.23281 -4.582951,-2.93789 -1.76269,-0.74393 -3.42744,-1.33175 -4.99427,-1.76268 -2.62443,-0.70507 -5.3468,-1.58681 -8.16708,-2.64397 -2.78112,-1.09703 -5.13136,-2.72237 -7.05073,-4.87679 -1.91937,-2.15442 -2.87904,-5.17047 -2.87904,-9.04838 0,-2.93788 0.70507,-5.71898 2.11522,-8.34342 1.41014,-2.66362 3.70163,-4.81793 6.87446,-6.46314 3.17282,-1.64521 7.38366,-2.46776 12.63253,-2.46776 3.83873,0 7.48196,0.41083 9.871377,1.23393 2.428571,0.7828 5.256107,1.56011 7.018777,2.46104 l 0.09214,10.23061 c -1.684329,-1.41014 -5.759526,-3.13406 -7.992265,-4.11328 -2.232731,-0.97933 -5.503829,-1.46888 -8.754999,-1.46888 -3.29034,0 -5.97354,0.62623 -8.04957,1.88015 -2.07604,1.21429 -3.11407,3.17284 -3.11407,5.87555 0,2.70283 1.09681,4.62219 3.29033,5.75819 2.23274,1.13589 5.60142,2.38937 10.10604,3.76032 1.41014,0.39195 3.035724,0.95935 4.87674,1.70395 1.880201,0.74394 3.701632,1.74304 5.46431,2.99651 1.76267,1.25348 3.211992,2.89869 4.34794,4.93552 1.175121,1.99775 1.762692,4.5047 1.762692,7.52076 0,2.54615 -0.60714,5.15093 -1.82144,7.81455 -1.214292,2.62444 -3.407851,4.83759 -6.580671,6.63947 -3.172831,1.80189 -7.697031,2.70282 -13.572631,2.70282 z"
       class="highlight"
       style="font-style:normal;font-variant:normal;font-weight:normal;font-stretch:normal;font-size:10.5833px;line-height:1.25;font-family:Cabin;-inkscape-font-specification:Cabin;letter-spacing:0px;word-spacing:0px;fill:#1a84ff;fill-opacity:1;stroke:none;stroke-width:2.9378"
       id="path1105"
       sodipodi:nodetypes="scccsscsccccsscsscccsscscccscscss" />
    <path
       id="path1107"
       class="highlight"
       style="font-style:normal;font-variant:normal;font-weight:normal;font-stretch:normal;font-size:10.5833px;line-height:1.25;font-family:Cabin;-inkscape-font-specification:Cabin;letter-spacing:0px;word-spacing:0px;fill:#1a84ff;fill-opacity:1;stroke:none;stroke-width:2.9378"
       d="m -58.280681,175.8921 c -5.366388,0 -10.007666,1.40994 -13.92473,4.23024 -3.917082,2.7811 -6.953075,6.46336 -9.107456,11.04635 -2.115219,4.58299 -3.172933,9.51826 -3.172933,14.80633 0,5.5622 1.155904,10.59577 3.466973,15.10037 2.350249,4.50459 5.503129,8.08869 9.45937,10.75232 3.95624,2.66363 8.382442,3.99562 13.278776,3.99562 4.112924,0 7.971308,-0.95994 11.575004,-2.87941 3.198443,-1.7383 5.639155,-4.20332 7.325651,-7.3918 0.0081,0.21216 0.0145,0.42108 0.02326,0.63459 0.78341,1.80178 1.665066,3.32969 2.644283,4.58318 0.97926,1.25314 2.389214,2.21269 4.230232,2.87889 1.880201,0.66622 4.524484,0.99943 7.932333,0.99943 h 0.822172 l 1.645378,-8.46099 h -1.057817 c -2.03689,0 -3.525229,-0.43131 -4.46536,-1.29294 -0.90093,-0.90095 -1.488536,-2.23241 -1.762684,-3.99511 -0.235061,-1.80187 -0.352433,-4.0737 -0.352433,-6.8156 v -11.75122 c -0.368213,-8.62104 -0.286652,-17.70653 -0.357084,-26.18496 h -10.576097 v 7.32306 c -1.842778,-2.22305 -4.016092,-3.90805 -6.521566,-5.05189 -3.564533,-1.68375 -7.266538,-2.52646 -11.105267,-2.52646 z m 1.880505,9.40098 c 2.663616,0 5.288158,0.78343 7.873423,2.35024 2.624447,1.52774 4.778838,3.83897 6.46317,6.93343 1.723519,3.05535 2.584855,6.85448 2.584855,11.39827 0,4.89632 -0.861346,8.85289 -2.584855,11.86905 -1.684332,2.97695 -3.838723,5.15061 -6.46317,6.52156 -2.585265,1.3714 -5.209807,2.05672 -7.873423,2.05672 -3.603707,0 -6.698406,-0.92051 -9.283671,-2.76159 -2.585262,-1.88015 -4.563031,-4.36752 -5.934004,-7.46207 -1.370941,-3.09445 -2.056722,-6.50254 -2.056722,-10.22367 0,-3.9563 0.685747,-7.48167 2.056722,-10.5761 1.370973,-3.13365 3.348742,-5.60127 5.934004,-7.40316 2.585265,-1.80222 5.679964,-2.70268 9.283671,-2.70268 z"
       sodipodi:nodetypes="sccscsscccccsccsccscccccssccsccscssccs" />
    <path
       d="m -20.295943,235.63059 v -59.602 h 10.3425167 l -0.0015,12.28916 -4.1129097,-1.79215 c 3.87789,-4.38077 7.6578497,-7.24823 11.3398897,-8.60237 3.72121997,-1.35415 7.34452,-2.03116 10.86988,-2.03116 8.4216903,0 14.4343803,2.46917 18.0380903,7.40763 3.64288,4.93836 5.46431,11.62902 5.46431,20.0721 v 32.25879 H 21.068307 V 203.3718 c 0,-6.21278 -1.13596,-10.75297 -3.40785,-13.62032 -2.27191,-2.86746 -6.14982,-4.30119 -11.6337003,-4.30119 -3.8779,0 -7.44243,0.87606 -10.69359,2.62848 -3.212,1.71246 -5.32721,4.46047 -6.3456597,8.24395 l 1.2926397,-6.57124 v 45.87911 z"
       class="highlight"
       style="font-style:normal;font-variant:normal;font-weight:normal;font-stretch:normal;font-size:10.5833px;line-height:1.25;font-family:Cabin;-inkscape-font-specification:Cabin;letter-spacing:0px;word-spacing:0px;fill:#1a84ff;fill-opacity:1;stroke:none;stroke-width:2.96226"
       id="path1109"
       sodipodi:nodetypes="ccccccscsccsssccccc" />
    <path
       d="m 59.723725,235.82328 c -4.89634,0 -9.32262,-1.33186 -13.27886,-3.99549 -3.95623,-2.66363 -7.10947,-6.24773 -9.45972,-10.75232 -2.31107,-4.5046 -3.4666,-9.53806 -3.4666,-15.10026 0,-5.28806 1.05762,-10.22358 3.17283,-14.80657 2.15438,-4.58298 5.1901,-8.26502 9.10717,-11.04612 3.91707,-2.8203 8.55879,-4.23045 13.92518,-4.23045 3.83873,0 7.54035,0.84275 11.10489,2.5265 3.60371,1.64521 6.52191,4.40677 8.75464,8.28467 l -2.23273,1.52763 v -41.71675 h 10.57609 v 58.50062 c -0.0064,26.47557 -15.250327,30.83164 -28.20289,30.80854 z m 1.88019,-9.40102 c 2.66361,0 5.28804,-0.68509 7.8733,-2.05649 2.62445,-1.37095 4.77884,-3.54492 6.46316,-6.52188 1.72352,-3.01616 2.58528,-6.97236 2.58528,-11.86868 0,-4.54379 -0.86176,-8.34331 -2.58528,-11.39866 -1.68432,-3.09445 -3.83871,-5.40554 -6.46316,-6.93328 -2.58526,-1.56681 -5.20969,-2.35018 -7.8733,-2.35018 -3.60371,0 -6.69818,0.9005 -9.28344,2.70272 -2.58527,1.80188 -4.56339,4.26964 -5.93436,7.40329 -1.37098,3.09443 -2.05647,6.61981 -2.05647,10.57611 0,3.72113 0.68553,7.12902 2.05647,10.22347 1.37097,3.09455 3.34909,5.58186 5.93436,7.46201 2.58526,1.84108 5.67973,2.76157 9.28344,2.76157 z"
       class="highlight"
       style="font-style:normal;font-variant:normal;font-weight:normal;font-stretch:normal;font-size:10.5833px;line-height:1.25;font-family:Cabin;-inkscape-font-specification:Cabin;letter-spacing:0px;word-spacing:0px;fill:#1a84ff;fill-opacity:1;stroke:none;stroke-width:2.9378"
       id="path1111"
       sodipodi:nodetypes="cscsccscccccccsccsccsscsscs" />
    <path
       d="m 91.032811,235.47884 v -59.45328 h 10.283359 l 0.23429,8.5647 c 2.9378,-3.69435 5.20934,-4.80551 7.87294,-6.55338 2.70278,-1.7876 5.58183,-2.14481 8.63713,-2.14481 0.97923,0 1.88021,0.11936 2.7028,0.35808 l -1.05762,11.79822 c -0.50921,-0.11936 -1.05762,-0.19931 -1.64518,-0.23873 -0.5484,-0.0788 -1.17509,-0.11936 -1.88019,-0.11936 -3.0553,0 -5.87559,0.69479 -8.46087,2.08557 -2.54608,1.35059 -4.34794,2.84025 -5.40554,4.46897 v 41.23402 z"
       class="highlight"
       style="font-style:normal;font-variant:normal;font-weight:normal;font-stretch:normal;font-size:10.5833px;line-height:1.25;font-family:Cabin;-inkscape-font-specification:Cabin;letter-spacing:0px;word-spacing:0px;fill:#1a84ff;fill-opacity:1;stroke:none;stroke-width:2.9585"
       id="path1113"
       sodipodi:nodetypes="cccccscccscccc" />
    <path
       d="m 161.00525,156.19735 c -8.33051,0 -14.95706,3.10501 -19.8796,9.31501 -4.88471,6.21002 -7.32708,14.67305 -7.32708,25.38912 0,10.67819 2.44237,19.12229 7.32708,25.33231 4.92254,6.21003 11.54909,9.31504 19.8796,9.31504 8.33048,0 14.91916,-3.10501 19.76601,-9.31504 4.88471,-6.21002 7.32706,-14.65412 7.32706,-25.33231 0,-10.71607 -2.44235,-19.1791 -7.32706,-25.38912 -4.84685,-6.21 -11.43553,-9.31501 -19.76601,-9.31501 z m 0,-9.31503 c 11.8899,0 21.39423,3.99486 28.51303,11.98457 7.1188,7.95186 10.67819,18.63003 10.67819,32.03459 0,13.36667 -3.55939,24.04486 -10.67819,32.03458 -7.1188,7.95186 -16.62313,11.92778 -28.51303,11.92778 -11.92776,0 -21.46996,-3.97592 -28.62665,-11.92778 -7.1188,-7.95183 -10.67819,-18.63002 -10.67819,-32.03458 0,-13.40456 3.55939,-24.08273 10.67819,-32.03459 7.15669,-7.98971 16.69889,-11.98457 28.62665,-11.98457 z"
       class="highlight"
       style="font-style:normal;font-variant:normal;font-weight:normal;font-stretch:normal;font-size:50.8px;line-height:1.25;font-family:sans-serif;-inkscape-font-specification:'sans-serif, Normal';font-variant-ligatures:normal;font-variant-caps:normal;font-variant-numeric:normal;font-variant-east-asian:normal;letter-spacing:0px;word-spacing:0px;fill:#1a84ff;fill-opacity:1;stroke:none;stroke-width:0.605856"
       id="path1102-1-3"
       sodipodi:nodetypes="scscscscsscscscscs" />
    <g
       aria-label=".xyz"
       id="text16"
       class="highlight"
       style="font-style:normal;font-weight:normal;font-size:13.9463px;line-height:1.25;font-family:sans-serif;letter-spacing:0px;word-spacing:0px;fill:#1a84ff;fill-opacity:1;stroke:none;stroke-width:0.348657">
      <text
         xml:space="preserve"
         style="font-size:60.3333px;line-height:1.25;font-family:sans-serif;letter-spacing:0px;word-spacing:0px;stroke-width:0.525893"
         x="194.44881"
         y="235.96277"
         id="text4342"><tspan
           sodipodi:role="line"
           id="tspan4340"
           style="stroke-width:0.525893"
           x="194.44881"
           y="235.96277">s</tspan></text>
    </g>
  </g>
</svg>
